<svg width="19" height="18" viewBox="0 0 19 18" fill="none" xmlns="http://www.w3.org/2000/svg">
<path d="M18.25 1.875V16.125C18.2496 16.4233 18.131 16.7092 17.9201 16.9201C17.7092 17.131 17.4232 17.2497 17.125 17.25H10.7158C10.6164 17.25 10.521 17.2105 10.4507 17.1402C10.3803 17.0698 10.3408 16.9745 10.3408 16.875C10.3408 16.7755 10.3803 16.6802 10.4507 16.6098C10.521 16.5395 10.6164 16.5 10.7158 16.5H17.125C17.2244 16.4999 17.3197 16.4604 17.39 16.3901C17.4603 16.3198 17.4999 16.2244 17.5 16.125V1.875C17.4999 1.77557 17.4603 1.68025 17.39 1.60994C17.3197 1.53964 17.2244 1.5001 17.125 1.5H2.87496C2.77554 1.5001 2.68021 1.53964 2.60991 1.60994C2.5396 1.68025 2.50006 1.77557 2.49996 1.875V10.4318C2.49996 10.5313 2.46045 10.6267 2.39013 10.697C2.3198 10.7673 2.22442 10.8068 2.12496 10.8068C2.02551 10.8068 1.93012 10.7673 1.8598 10.697C1.78947 10.6267 1.74996 10.5313 1.74996 10.4318V1.875C1.75028 1.57673 1.86891 1.29077 2.07982 1.07986C2.29073 0.868953 2.57669 0.750323 2.87496 0.75H17.125C17.4232 0.750323 17.7092 0.868953 17.9201 1.07986C18.131 1.29077 18.2496 1.57673 18.25 1.875ZM10.2651 10.9849C10.1948 10.9146 10.0994 10.8751 9.99996 10.8751C9.90053 10.8751 9.80516 10.9146 9.73484 10.9849L3.99996 16.7197L1.26509 13.9849C1.19449 13.9159 1.09953 13.8775 1.0008 13.878C0.902071 13.8786 0.807547 13.9181 0.737741 13.9879C0.667935 14.0577 0.628479 14.1522 0.627935 14.2509C0.627392 14.3497 0.665804 14.4446 0.734837 14.5152L3.73484 17.5152C3.80516 17.5855 3.90053 17.625 3.99996 17.625C4.0994 17.625 4.19476 17.5855 4.26509 17.5152L10.2651 11.5152C10.2999 11.4804 10.3275 11.4391 10.3464 11.3936C10.3652 11.3481 10.3749 11.2993 10.3749 11.25C10.3749 11.2008 10.3652 11.152 10.3464 11.1065C10.3275 11.061 10.2999 11.0197 10.2651 10.9849Z" fill="#393327"/>
</svg>
